<?xml version="1.0" encoding="UTF-8" standalone="no"?>
<!-- Created with Inkscape (http://www.inkscape.org/) -->

<svg
   width="210mm"
   height="235.09644mm"
   viewBox="0 0 210 235.09644"
   version="1.1"
   id="svg1"
   xml:space="preserve"
   xmlns="http://www.w3.org/2000/svg"
   xmlns:svg="http://www.w3.org/2000/svg"><defs
     id="defs1" /><g
     id="layer1"
     transform="translate(0,-53.409091)"><g
       id="g64"><g
         id="g65"
         transform="rotate(39.876625,97.009431,259.21105)"><path
           style="fill:#4d4d4d;fill-opacity:1;fill-rule:nonzero;stroke-width:0.247;stroke-dasharray:none;paint-order:stroke fill markers"
           id="path53"
           d="m 50.000001,229.99999 12.960398,15 6.323234,-7.98133 0.286427,19.82145 9.974178,-2.04956 -12.521566,15.36823 8.958095,4.84122 -19.47058,3.72404 3.750419,9.46674 -17.309093,-9.66267 -3.21212,9.66267 -7.048488,-18.5281 -8.671672,5.33732 6.510181,-18.72403 -10.073652,-1.48542 17.022665,-10.15877 -6.762058,-7.61312 19.570054,3.15988 z"
           transform="rotate(180,73.491822,259.15666)" /><path
           style="fill:#808080;fill-opacity:1;fill-rule:nonzero;stroke-width:0.247;stroke-dasharray:none;paint-order:stroke fill markers"
           id="path55"
           d="m 50.000001,229.99999 12.960398,15 6.323234,-7.98133 0.286427,19.82145 9.974178,-2.04956 -12.521566,15.36823 8.958095,4.84122 -19.47058,3.72404 3.750419,9.46674 -17.309093,-9.66267 -3.21212,9.66267 -7.048488,-18.5281 -8.671672,5.33732 6.510181,-18.72403 -10.073652,-1.48542 17.022665,-10.15877 -6.762058,-7.61312 19.570054,3.15988 z"
           transform="matrix(-0.75342204,-0.10726056,0.10726056,-0.75342204,106.55675,459.76737)" /><ellipse
           style="fill:#000000;fill-opacity:1;fill-rule:nonzero;stroke-width:0.361425;stroke-dasharray:none;paint-order:stroke fill markers"
           id="path54"
           cx="-96.983643"
           cy="-259.21793"
           rx="3.6581473"
           ry="3.6581469"
           transform="scale(-1)" /><path
           style="fill:#ffffff;fill-opacity:1;fill-rule:nonzero;stroke-width:0.247;stroke-dasharray:none;paint-order:stroke fill markers"
           d="m 82.000002,268.99999 2.999999,-9 0.477705,3 z"
           id="path56" /><path
           style="fill:#ffffff;fill-opacity:1;fill-rule:nonzero;stroke-width:0.247;stroke-dasharray:none;paint-order:stroke fill markers"
           d="m 115.91212,252.10453 -5.22715,7.91688 L 111,256.99999 Z"
           id="path57" /><path
           style="fill:#ffffff;fill-opacity:1;fill-rule:nonzero;stroke-width:0.247;stroke-dasharray:none;paint-order:stroke fill markers"
           d="m 77.901924,257.99999 7.098078,-6.29424 -1.086296,2.83694 z"
           id="path58" /><path
           style="fill:#ffffff;fill-opacity:1;fill-rule:nonzero;stroke-width:0.247;stroke-dasharray:none;paint-order:stroke fill markers"
           d="m 82.304349,245.1937 9.469799,0.5684 -2.774146,1.23789 z"
           id="path59" /><path
           style="fill:#ffffff;fill-opacity:1;fill-rule:nonzero;stroke-width:0.247;stroke-dasharray:none;paint-order:stroke fill markers"
           d="m 93.5427,238.47077 6.29423,7.09808 -2.836928,-1.0863 z"
           id="path60" /><path
           style="fill:#ffffff;fill-opacity:1;fill-rule:nonzero;stroke-width:0.247;stroke-dasharray:none;paint-order:stroke fill markers"
           d="m 107.01178,242.06498 1.90193,9.29424 L 107,248.99999 Z"
           id="path61" /><path
           style="fill:#ffffff;fill-opacity:1;fill-rule:nonzero;stroke-width:0.247;stroke-dasharray:none;paint-order:stroke fill markers"
           d="m 115.4675,266.00588 -9.29423,1.90192 2.35923,-1.9137 z"
           id="path62" /><path
           style="fill:#ffffff;fill-opacity:1;fill-rule:nonzero;stroke-width:0.247;stroke-dasharray:none;paint-order:stroke fill markers"
           d="m 92.783534,277.70173 -4.242641,-8.48528 2.459109,1.78354 z"
           id="path63" /><path
           style="fill:#ffffff;fill-opacity:1;fill-rule:nonzero;stroke-width:0.247;stroke-dasharray:none;paint-order:stroke fill markers"
           d="M 105.89546,275.9121 97.978588,270.68496 101,270.99999 Z"
           id="path64" /></g></g></g></svg>
