<?xml version="1.0" encoding="UTF-8" standalone="no"?>
<!-- Generator: Adobe Illustrator 26.0.3, SVG Export Plug-In . SVG Version: 6.00 Build 0)  -->

<svg
   version="1.1"
   id="Capa_1"
   x="0px"
   y="0px"
   viewBox="0 0 841.89 595.28"
   style="enable-background:new 0 0 841.89 595.28;"
   xml:space="preserve"
   sodipodi:docname="coche.svg"
   inkscape:version="1.3.2 (091e20e, 2023-11-25, custom)"
   xmlns:inkscape="http://www.inkscape.org/namespaces/inkscape"
   xmlns:sodipodi="http://sodipodi.sourceforge.net/DTD/sodipodi-0.dtd"
   xmlns="http://www.w3.org/2000/svg"
   xmlns:svg="http://www.w3.org/2000/svg"><defs
   id="defs250" /><sodipodi:namedview
   id="namedview250"
   pagecolor="#505050"
   bordercolor="#ffffff"
   borderopacity="1"
   inkscape:showpageshadow="0"
   inkscape:pageopacity="0"
   inkscape:pagecheckerboard="1"
   inkscape:deskcolor="#505050"
   inkscape:zoom="1.8696849"
   inkscape:cx="194.95264"
   inkscape:cy="258.59973"
   inkscape:window-width="1920"
   inkscape:window-height="1001"
   inkscape:window-x="-9"
   inkscape:window-y="-9"
   inkscape:window-maximized="1"
   inkscape:current-layer="Capa_1" />
<style
   type="text/css"
   id="style1">
	.st0{fill:#EFB5A1;}
	.st1{fill:#2C1E37;}
	.st2{fill:#A9696A;}
	.st3{fill:#794664;}
</style>
<rect
   x="31.39"
   y="199.57"
   transform="matrix(-1.836970e-16 1 -1 -1.836970e-16 410.7907 79.2451)"
   class="st0"
   width="268.76"
   height="90.89"
   id="rect1" />
<rect
   x="201.39"
   y="163.7"
   transform="matrix(-1.836970e-16 1 -1 -1.836970e-16 388.1553 -51.0904)"
   class="st0"
   width="36.46"
   height="9.66"
   id="rect2" />
<rect
   x="94.37"
   y="159.95"
   transform="matrix(-1.836970e-16 1 -1 -1.836970e-16 280.6863 48.3746)"
   class="st0"
   width="43.58"
   height="9.17"
   id="rect3" />
<rect
   x="203.47"
   y="266.97"
   transform="matrix(-1.836970e-16 1 -1 -1.836970e-16 484.5551 59.5388)"
   class="st0"
   width="18.08"
   height="10.15"
   id="rect4" />
<rect
   x="88.17"
   y="327.77"
   transform="matrix(-1.836970e-16 1 -1 -1.836970e-16 447.5611 215.6108)"
   class="st0"
   width="55.6"
   height="7.62"
   id="rect5" />
<rect
   x="191.62"
   y="328.73"
   transform="matrix(-1.836970e-16 1 -1 -1.836970e-16 552.1946 113.1462)"
   class="st0"
   width="55.8"
   height="7.89"
   id="rect6" />
<rect
   x="197"
   y="376"
   transform="matrix(-1.836970e-16 1 -1 -1.836970e-16 591.5801 185.0653)"
   class="st0"
   width="12.52"
   height="24.65"
   id="rect7" />
<rect
   x="147.99"
   y="350.98"
   transform="matrix(-1.836970e-16 1 -1 -1.836970e-16 544.4741 232.5)"
   class="st0"
   width="16"
   height="75.02"
   id="rect8" />
<rect
   x="165.2"
   y="383.75"
   transform="matrix(-1.836970e-16 1 -1 -1.836970e-16 567.2877 229.338)"
   class="st0"
   width="7.56"
   height="29.13"
   id="rect9" />
<g
   id="g15">
	
		<rect
   x="165.79"
   y="220.38"
   transform="matrix(-1.836970e-16 1 -1 -1.836970e-16 424.0325 88.6728)"
   class="st1"
   width="3.79"
   height="71.94"
   id="rect10" />
	
		<rect
   x="165.69"
   y="220.47"
   transform="matrix(-1.836970e-16 1 -1 -1.836970e-16 427.9134 92.5619)"
   class="st1"
   width="3.98"
   height="79.53"
   id="rect11" />
	
		<rect
   x="165.86"
   y="246.95"
   transform="matrix(-1.836970e-16 1 -1 -1.836970e-16 450.5824 115.2268)"
   class="st1"
   width="3.64"
   height="71.92"
   id="rect12" />
	
		<rect
   x="163.86"
   y="263.93"
   transform="matrix(-1.836970e-16 1 -1 -1.836970e-16 452.4514 120.8626)"
   class="st1"
   width="3.87"
   height="45.45"
   id="rect13" />
	
		<rect
   x="165.69"
   y="224.46"
   transform="matrix(-1.836970e-16 1 -1 -1.836970e-16 431.8944 96.5429)"
   class="st1"
   width="3.98"
   height="79.53"
   id="rect14" />
	
		<rect
   x="160.04"
   y="229.9"
   transform="matrix(-1.836970e-16 1 -1 -1.836970e-16 441.1297 105.7864)"
   class="st1"
   width="15.25"
   height="87.11"
   id="rect15" />
</g>
<g
   id="g19">
	
		<rect
   x="165.81"
   y="129.45"
   transform="matrix(-1.836970e-16 1 -1 -1.836970e-16 321.7806 -13.6037)"
   class="st1"
   width="3.76"
   height="49.28"
   id="rect16" />
	
		<rect
   x="163.85"
   y="127.59"
   transform="matrix(-1.836970e-16 1 -1 -1.836970e-16 327.4247 -7.8775)"
   class="st1"
   width="7.61"
   height="64.38"
   id="rect17" />
	
		<rect
   x="163.88"
   y="131.38"
   transform="matrix(-1.836970e-16 1 -1 -1.836970e-16 335.0652 -0.3027)"
   class="st1"
   width="7.61"
   height="72"
   id="rect18" />
	
		<rect
   x="163.88"
   y="135.24"
   transform="matrix(-1.836970e-16 1 -1 -1.836970e-16 342.6729 7.3049)"
   class="st1"
   width="7.61"
   height="79.49"
   id="rect19" />
</g>
<g
   id="g21">
	
		<rect
   x="177.19"
   y="224.1"
   transform="matrix(-1.836970e-16 1 -1 -1.836970e-16 442.9809 9.1329)"
   class="st1"
   width="79.48"
   height="3.92"
   id="rect20" />
	
		<rect
   x="179.01"
   y="222.29"
   transform="matrix(-1.836970e-16 1 -1 -1.836970e-16 437.2595 11.0766)"
   class="st1"
   width="68.16"
   height="3.75"
   id="rect21" />
</g>
<g
   id="g23">
	
		<rect
   x="78.67"
   y="224.1"
   transform="matrix(-1.836970e-16 1 -1 -1.836970e-16 344.5061 107.6433)"
   class="st1"
   width="79.51"
   height="3.95"
   id="rect22" />
	
		<rect
   x="88.2"
   y="222.3"
   transform="matrix(-1.836970e-16 1 -1 -1.836970e-16 346.4819 101.8882)"
   class="st1"
   width="68.19"
   height="3.78"
   id="rect23" />
</g>
<rect
   x="163.89"
   y="305.53"
   transform="matrix(-1.836970e-16 1 -1 -1.836970e-16 482.6601 132.2535)"
   class="st2"
   width="22.63"
   height="3.86"
   id="rect24" />
<rect
   x="148.75"
   y="305.62"
   transform="matrix(-1.836970e-16 1 -1 -1.836970e-16 467.5188 147.3948)"
   class="st2"
   width="22.63"
   height="3.68"
   id="rect25" />
<rect
   x="165.73"
   y="311.23"
   transform="matrix(-1.836970e-16 1 -1 -1.836970e-16 484.5004 149.3255)"
   class="st2"
   width="3.71"
   height="11.37"
   id="rect26" />
<rect
   x="167.07"
   y="288.55"
   transform="matrix(-1.836970e-16 1 -1 -1.836970e-16 463.2128 125.2631)"
   class="st2"
   width="3.81"
   height="11.37"
   id="rect27" />
<rect
   x="84.37"
   y="150.34"
   transform="matrix(-1.836970e-16 1 -1 -1.836970e-16 274.4604 29.9661)"
   class="st2"
   width="75.75"
   height="3.75"
   id="rect28" />
<rect
   x="88.1"
   y="154.09"
   transform="matrix(-1.836970e-16 1 -1 -1.836970e-16 274.4648 37.5898)"
   class="st2"
   width="60.68"
   height="3.87"
   id="rect29" />
<rect
   x="175.22"
   y="150.33"
   transform="matrix(-1.836970e-16 1 -1 -1.836970e-16 365.2985 -60.8844)"
   class="st2"
   width="75.75"
   height="3.75"
   id="rect30" />
<rect
   x="186.56"
   y="154.08"
   transform="matrix(-1.836970e-16 1 -1 -1.836970e-16 372.9223 -60.88)"
   class="st2"
   width="60.68"
   height="3.87"
   id="rect31" />
<rect
   x="101.37"
   y="140.87"
   transform="matrix(-1.836970e-16 1 -1 -1.836970e-16 272.5529 12.9326)"
   class="st2"
   width="56.88"
   height="3.75"
   id="rect32" />
<rect
   x="129.77"
   y="157.88"
   transform="matrix(-1.836970e-16 1 -1 -1.836970e-16 293.3465 26.2007)"
   class="st2"
   width="7.61"
   height="3.78"
   id="rect33" />
<rect
   x="137.41"
   y="150.26"
   transform="matrix(-1.836970e-16 1 -1 -1.836970e-16 293.3794 14.7975)"
   class="st2"
   width="3.76"
   height="7.66"
   id="rect34" />
<rect
   x="165.79"
   y="125.66"
   transform="matrix(-1.836970e-16 1 -1 -1.836970e-16 317.9953 -17.389)"
   class="st2"
   width="3.81"
   height="49.28"
   id="rect35" />
<rect
   x="194.2"
   y="150.33"
   transform="matrix(-1.836970e-16 1 -1 -1.836970e-16 350.1737 -41.9967)"
   class="st2"
   width="3.76"
   height="7.51"
   id="rect36" />
<rect
   x="197.96"
   y="157.85"
   transform="matrix(-1.836970e-16 1 -1 -1.836970e-16 361.5358 -41.9885)"
   class="st2"
   width="7.61"
   height="3.84"
   id="rect37" />
<rect
   x="177.13"
   y="140.89"
   transform="matrix(-1.836970e-16 1 -1 -1.836970e-16 348.3159 -62.7996)"
   class="st2"
   width="56.85"
   height="3.75"
   id="rect38" />
<rect
   x="146.83"
   y="99.15"
   transform="matrix(-1.836970e-16 1 -1 -1.836970e-16 264.9276 -32.5311)"
   class="st2"
   width="3.8"
   height="34.09"
   id="rect39" />
<rect
   x="184.75"
   y="99.07"
   transform="matrix(-1.836970e-16 1 -1 -1.836970e-16 302.7523 -70.4237)"
   class="st2"
   width="3.67"
   height="34.19"
   id="rect40" />
<rect
   x="148.66"
   y="131.29"
   transform="matrix(-1.836970e-16 1 -1 -1.836970e-16 297.0607 -30.5655)"
   class="st2"
   width="30.3"
   height="3.92"
   id="rect41" />
<rect
   x="156.24"
   y="131.25"
   transform="matrix(-1.836970e-16 1 -1 -1.836970e-16 304.6368 -38.2402)"
   class="st2"
   width="30.4"
   height="3.89"
   id="rect42" />
<rect
   x="175.24"
   y="222.27"
   transform="matrix(-1.836970e-16 1 -1 -1.836970e-16 433.4896 14.8404)"
   class="st2"
   width="68.16"
   height="3.79"
   id="rect43" />
<rect
   x="209.3"
   y="260.17"
   transform="matrix(-1.836970e-16 1 -1 -1.836970e-16 475.1347 48.9436)"
   class="st2"
   width="7.58"
   height="3.74"
   id="rect44" />
<rect
   x="209.28"
   y="271.48"
   transform="matrix(-1.836970e-16 1 -1 -1.836970e-16 490.3642 56.5162)"
   class="st2"
   width="15.29"
   height="3.92"
   id="rect45" />
<rect
   x="161.96"
   y="326.43"
   transform="matrix(-1.836970e-16 1 -1 -1.836970e-16 541.3953 115.2042)"
   class="st2"
   width="102.27"
   height="3.74"
   id="rect46" />
<rect
   x="92"
   y="222.24"
   transform="matrix(-1.836970e-16 1 -1 -1.836970e-16 350.2109 98.0514)"
   class="st2"
   width="68.16"
   height="3.79"
   id="rect47" />
<rect
   x="118.44"
   y="260.15"
   transform="matrix(-1.836970e-16 1 -1 -1.836970e-16 384.2676 139.7768)"
   class="st2"
   width="7.62"
   height="3.74"
   id="rect48" />
<rect
   x="110.84"
   y="271.51"
   transform="matrix(-1.836970e-16 1 -1 -1.836970e-16 391.8886 154.9936)"
   class="st2"
   width="15.22"
   height="3.85"
   id="rect49" />
<rect
   x="71.12"
   y="326.34"
   transform="matrix(-1.836970e-16 1 -1 -1.836970e-16 450.5184 206.0132)"
   class="st2"
   width="102.27"
   height="3.85"
   id="rect50" />
<rect
   x="205.61"
   y="279.11"
   transform="matrix(-1.836970e-16 1 -1 -1.836970e-16 490.3355 75.4736)"
   class="st2"
   width="3.64"
   height="7.59"
   id="rect51" />
<rect
   x="194.19"
   y="279.06"
   transform="matrix(-1.836970e-16 1 -1 -1.836970e-16 482.6909 90.5369)"
   class="st2"
   width="3.78"
   height="15.12"
   id="rect52" />
<rect
   x="213.12"
   y="298.03"
   transform="matrix(-1.836970e-16 1 -1 -1.836970e-16 520.5729 79.1912)"
   class="st2"
   width="15.13"
   height="3.71"
   id="rect53" />
<rect
   x="215.06"
   y="360.5"
   transform="matrix(-1.836970e-16 1 -1 -1.836970e-16 583.077 141.6624)"
   class="st2"
   width="11.29"
   height="3.75"
   id="rect54" />
<rect
   x="179.01"
   y="282.82"
   transform="matrix(-1.836970e-16 1 -1 -1.836970e-16 471.3369 109.4985)"
   class="st2"
   width="3.83"
   height="15.2"
   id="rect55" />
<rect
   x="126.09"
   y="279.11"
   transform="matrix(-1.836970e-16 1 -1 -1.836970e-16 410.8169 154.9922)"
   class="st2"
   width="3.64"
   height="7.59"
   id="rect56" />
<rect
   x="135.46"
   y="280.95"
   transform="matrix(-1.836970e-16 1 -1 -1.836970e-16 424.0114 149.2452)"
   class="st2"
   width="3.84"
   height="11.35"
   id="rect57" />
<rect
   x="150.63"
   y="280.96"
   transform="matrix(-1.836970e-16 1 -1 -1.836970e-16 442.9873 137.9056)"
   class="st2"
   width="3.83"
   height="18.97"
   id="rect58" />
<rect
   x="164.43"
   y="288.55"
   transform="matrix(-1.836970e-16 1 -1 -1.836970e-16 460.5755 127.9004)"
   class="st2"
   width="3.81"
   height="11.37"
   id="rect59" />
<rect
   x="165.77"
   y="337.83"
   transform="matrix(-1.836970e-16 1 -1 -1.836970e-16 552.7903 217.447)"
   class="st2"
   width="3.81"
   height="94.59"
   id="rect60" />
<rect
   x="109"
   y="360.51"
   transform="matrix(-1.836970e-16 1 -1 -1.836970e-16 477.1084 247.7296)"
   class="st2"
   width="11.39"
   height="3.82"
   id="rect61" />
<rect
   x="107.02"
   y="298.03"
   transform="matrix(-1.836970e-16 1 -1 -1.836970e-16 414.5304 185.2009)"
   class="st2"
   width="15.28"
   height="3.67"
   id="rect62" />
<rect
   x="186.54"
   y="385.13"
   transform="matrix(-1.836970e-16 1 -1 -1.836970e-16 577.3425 200.4695)"
   class="st2"
   width="3.8"
   height="7.56"
   id="rect63" />
<rect
   x="182.79"
   y="388.94"
   transform="matrix(-1.836970e-16 1 -1 -1.836970e-16 577.3754 208.0114)"
   class="st2"
   width="3.78"
   height="7.51"
   id="rect64" />
<rect
   x="178.96"
   y="392.76"
   transform="matrix(-1.836970e-16 1 -1 -1.836970e-16 577.4164 215.6272)"
   class="st2"
   width="3.88"
   height="7.53"
   id="rect65" />
<rect
   x="190.37"
   y="388.84"
   transform="matrix(-1.836970e-16 1 -1 -1.836970e-16 592.4921 208.0936)"
   class="st2"
   width="3.66"
   height="22.91"
   id="rect66" />
<rect
   x="144.82"
   y="385.09"
   transform="matrix(-1.836970e-16 1 -1 -1.836970e-16 535.5931 242.1532)"
   class="st2"
   width="3.8"
   height="7.56"
   id="rect67" />
<rect
   x="148.58"
   y="388.91"
   transform="matrix(-1.836970e-16 1 -1 -1.836970e-16 543.135 242.1861)"
   class="st2"
   width="3.78"
   height="7.51"
   id="rect68" />
<rect
   x="152.32"
   y="392.73"
   transform="matrix(-1.836970e-16 1 -1 -1.836970e-16 550.7509 242.2271)"
   class="st2"
   width="3.88"
   height="7.53"
   id="rect69" />
<rect
   x="141.13"
   y="388.81"
   transform="matrix(-1.836970e-16 1 -1 -1.836970e-16 543.2172 257.3027)"
   class="st2"
   width="3.66"
   height="22.91"
   id="rect70" />
<rect
   x="165.76"
   y="284.73"
   transform="matrix(-1.836970e-16 1 -1 -1.836970e-16 458.0955 122.7399)"
   class="st3"
   width="3.83"
   height="11.37"
   id="rect71" />
<rect
   x="173.3"
   y="292.31"
   transform="matrix(-1.836970e-16 1 -1 -1.836970e-16 469.4412 119.0347)"
   class="st3"
   width="3.81"
   height="3.86"
   id="rect72" />
<rect
   x="158.16"
   y="292.4"
   transform="matrix(-1.836970e-16 1 -1 -1.836970e-16 454.2999 134.176)"
   class="st3"
   width="3.81"
   height="3.68"
   id="rect73" />
<rect
   x="165.78"
   y="307.49"
   transform="matrix(-1.836970e-16 1 -1 -1.836970e-16 488.3658 130.3598)"
   class="st3"
   width="26.44"
   height="3.74"
   id="rect74" />
<rect
   x="143.13"
   y="307.49"
   transform="matrix(-1.836970e-16 1 -1 -1.836970e-16 465.7155 153.0102)"
   class="st3"
   width="26.44"
   height="3.74"
   id="rect75" />
<rect
   x="165.77"
   y="311.22"
   transform="matrix(-1.836970e-16 1 -1 -1.836970e-16 488.3535 152.9979)"
   class="st3"
   width="3.81"
   height="18.91"
   id="rect76" />
<rect
   x="165.78"
   y="235.51"
   transform="matrix(-1.836970e-16 1 -1 -1.836970e-16 458.0952 16.6771)"
   class="st3"
   width="109.86"
   height="3.74"
   id="rect77" />
<rect
   x="163.94"
   y="332.11"
   transform="matrix(-1.836970e-16 1 -1 -1.836970e-16 550.9459 117.1471)"
   class="st3"
   width="105.92"
   height="3.87"
   id="rect78" />
<rect
   x="65.47"
   y="332.11"
   transform="matrix(-1.836970e-16 1 -1 -1.836970e-16 452.4779 215.6151)"
   class="st3"
   width="105.92"
   height="3.87"
   id="rect79" />
<rect
   x="201.76"
   y="165.52"
   transform="matrix(-1.836970e-16 1 -1 -1.836970e-16 391.8441 -57.0631)"
   class="st3"
   width="45.38"
   height="3.75"
   id="rect80" />
<rect
   x="207.45"
   y="137.07"
   transform="matrix(-1.836970e-16 1 -1 -1.836970e-16 359.6531 -81.765)"
   class="st3"
   width="26.53"
   height="3.74"
   id="rect81" />
<rect
   x="211.14"
   y="117.98"
   transform="matrix(-1.836970e-16 1 -1 -1.836970e-16 336.821 -96.8087)"
   class="st3"
   width="11.35"
   height="4.05"
   id="rect82" />
<rect
   x="209.3"
   y="108.76"
   transform="matrix(-1.836970e-16 1 -1 -1.836970e-16 323.7277 -102.4552)"
   class="st3"
   width="7.59"
   height="3.75"
   id="rect83" />
<rect
   x="186.63"
   y="222.25"
   transform="matrix(-1.836970e-16 1 -1 -1.836970e-16 429.684 18.5356)"
   class="st3"
   width="37.89"
   height="3.71"
   id="rect84" />
<rect
   x="163.88"
   y="332.13"
   transform="matrix(-1.836970e-16 1 -1 -1.836970e-16 547.0928 215.5533)"
   class="st3"
   width="3.78"
   height="98.39"
   id="rect85" />
<rect
   x="116.57"
   y="383.22"
   transform="matrix(-1.836970e-16 1 -1 -1.836970e-16 503.5954 266.6418)"
   class="st3"
   width="3.81"
   height="3.8"
   id="rect86" />
<rect
   x="215"
   y="371.85"
   transform="matrix(-1.836970e-16 1 -1 -1.836970e-16 594.4309 153.0164)"
   class="st3"
   width="11.42"
   height="3.75"
   id="rect87" />
<rect
   x="108.94"
   y="371.95"
   transform="matrix(-1.836970e-16 1 -1 -1.836970e-16 488.4746 259.1698)"
   class="st3"
   width="11.42"
   height="3.75"
   id="rect88" />
<rect
   x="186.62"
   y="328.28"
   transform="matrix(-1.836970e-16 1 -1 -1.836970e-16 554.6675 105.6946)"
   class="st3"
   width="75.73"
   height="3.81"
   id="rect89" />
<rect
   x="163.91"
   y="63.33"
   transform="matrix(-1.836970e-16 1 -1 -1.836970e-16 274.5452 -57.0682)"
   class="st3"
   width="3.8"
   height="90.82"
   id="rect90" />
<rect
   x="120.37"
   y="110.59"
   transform="matrix(-1.836970e-16 1 -1 -1.836970e-16 234.7114 -9.7829)"
   class="st3"
   width="3.75"
   height="3.75"
   id="rect91" />
<rect
   x="103.27"
   y="135.21"
   transform="matrix(-1.836970e-16 1 -1 -1.836970e-16 251.71 22.4216)"
   class="st3"
   width="22.76"
   height="3.71"
   id="rect92" />
<rect
   x="112.76"
   y="118.08"
   transform="matrix(-1.836970e-16 1 -1 -1.836970e-16 238.4498 1.5748)"
   class="st3"
   width="11.35"
   height="3.87"
   id="rect93" />
<rect
   x="86.33"
   y="163.59"
   transform="matrix(-1.836970e-16 1 -1 -1.836970e-16 276.3819 54.4875)"
   class="st3"
   width="49.23"
   height="3.68"
   id="rect94" />
<rect
   x="110.87"
   y="222.33"
   transform="matrix(-1.836970e-16 1 -1 -1.836970e-16 354.0224 94.3533)"
   class="st3"
   width="37.93"
   height="3.72"
   id="rect95" />
<rect
   x="59.83"
   y="235.55"
   transform="matrix(-1.836970e-16 1 -1 -1.836970e-16 352.0509 122.7214)"
   class="st3"
   width="109.68"
   height="3.67"
   id="rect96" />
<rect
   x="72.93"
   y="328.21"
   transform="matrix(-1.836970e-16 1 -1 -1.836970e-16 441.0379 219.2996)"
   class="st3"
   width="75.89"
   height="3.92"
   id="rect97" />
<rect
   x="165.79"
   y="216.59"
   transform="matrix(-1.836970e-16 1 -1 -1.836970e-16 420.2443 84.8846)"
   class="st3"
   width="3.79"
   height="71.94"
   id="rect98" />
<rect
   x="165.92"
   y="148.34"
   transform="matrix(-1.836970e-16 1 -1 -1.836970e-16 348.3909 12.8751)"
   class="st3"
   width="3.68"
   height="64.59"
   id="rect99" />
<rect
   x="211.05"
   y="390.68"
   transform="matrix(-1.836970e-16 1 -1 -1.836970e-16 609.5147 175.9542)"
   class="st3"
   width="11.45"
   height="4.11"
   id="rect100" />
<rect
   x="199.68"
   y="390.68"
   transform="matrix(-1.836970e-16 1 -1 -1.836970e-16 598.1443 187.3246)"
   class="st3"
   width="11.45"
   height="4.11"
   id="rect101" />
<rect
   x="188.54"
   y="390.68"
   transform="matrix(-1.836970e-16 1 -1 -1.836970e-16 587.004 198.4649)"
   class="st3"
   width="11.45"
   height="4.11"
   id="rect102" />
<rect
   x="197.75"
   y="381.49"
   transform="matrix(-1.836970e-16 1 -1 -1.836970e-16 596.2137 196.83)"
   class="st3"
   width="3.88"
   height="30.07"
   id="rect103" />
<rect
   x="112.69"
   y="390.82"
   transform="matrix(-1.836970e-16 1 -1 -1.836970e-16 511.1465 274.3225)"
   class="st3"
   width="11.45"
   height="3.83"
   id="rect104" />
<rect
   x="124.19"
   y="390.68"
   transform="matrix(-1.836970e-16 1 -1 -1.836970e-16 522.6554 262.8136)"
   class="st3"
   width="11.45"
   height="4.11"
   id="rect105" />
<rect
   x="135.33"
   y="390.68"
   transform="matrix(-1.836970e-16 1 -1 -1.836970e-16 533.7957 251.6732)"
   class="st3"
   width="11.45"
   height="4.11"
   id="rect106" />
<rect
   x="133.59"
   y="381.37"
   transform="matrix(-1.836970e-16 1 -1 -1.836970e-16 532.0479 260.9958)"
   class="st3"
   width="3.88"
   height="30.29"
   id="rect107" />
<rect
   x="188.44"
   y="390.8"
   transform="matrix(-1.836970e-16 1 -1 -1.836970e-16 583.0195 202.3673)"
   class="st3"
   width="3.78"
   height="3.78"
   id="rect108" />
<rect
   x="143.12"
   y="390.78"
   transform="matrix(-1.836970e-16 1 -1 -1.836970e-16 537.6981 247.6619)"
   class="st3"
   width="3.81"
   height="3.81"
   id="rect109" />
<rect
   x="175.24"
   y="385.12"
   transform="matrix(-1.836970e-16 1 -1 -1.836970e-16 566.0461 211.7823)"
   class="st3"
   width="3.78"
   height="7.59"
   id="rect110" />
<rect
   x="173.36"
   y="390.78"
   transform="matrix(-1.836970e-16 1 -1 -1.836970e-16 567.911 217.4429)"
   class="st3"
   width="3.75"
   height="3.8"
   id="rect111" />
<rect
   x="167.7"
   y="392.73"
   transform="matrix(-1.836970e-16 1 -1 -1.836970e-16 566.0626 223.1034)"
   class="st3"
   width="7.56"
   height="3.71"
   id="rect112" />
<rect
   x="156.4"
   y="385.1"
   transform="matrix(-1.836970e-16 1 -1 -1.836970e-16 547.1892 230.6064)"
   class="st3"
   width="3.78"
   height="7.59"
   id="rect113" />
<rect
   x="158.32"
   y="390.76"
   transform="matrix(-1.836970e-16 1 -1 -1.836970e-16 552.8497 232.4713)"
   class="st3"
   width="3.75"
   height="3.8"
   id="rect114" />
<rect
   x="160.16"
   y="392.71"
   transform="matrix(-1.836970e-16 1 -1 -1.836970e-16 558.5103 230.6228)"
   class="st3"
   width="7.56"
   height="3.71"
   id="rect115" />
<rect
   x="160.15"
   y="392.65"
   transform="matrix(-1.836970e-16 1 -1 -1.836970e-16 562.2711 226.8785)"
   class="st3"
   width="15.1"
   height="3.85"
   id="rect116" />
<rect
   x="165.72"
   y="387.08"
   transform="matrix(-1.836970e-16 1 -1 -1.836970e-16 571.7374 236.4066)"
   class="st3"
   width="3.89"
   height="33.98"
   id="rect117" />
<rect
   x="98.09"
   y="322.82"
   class="st2"
   width="10.82"
   height="9.5"
   id="rect118" />
<rect
   x="226.34"
   y="322.82"
   class="st2"
   width="11.03"
   height="9.5"
   id="rect119" />
<rect
   x="226.4"
   y="312.35"
   class="st2"
   width="5.94"
   height="5.11"
   id="rect120" />
<rect
   x="103.23"
   y="147.93"
   transform="matrix(-1 -1.224647e-16 1.224647e-16 -1 212.4072 300.9789)"
   class="st2"
   width="5.94"
   height="5.11"
   id="rect121" />
<rect
   x="226.33"
   y="158.44"
   class="st2"
   width="11.02"
   height="9.5"
   id="rect122" />
<rect
   x="98.07"
   y="158.4"
   class="st2"
   width="11.02"
   height="9.5"
   id="rect123" />
<g
   id="g130">
	
		<rect
   x="101.81"
   y="156.22"
   transform="matrix(-1.836970e-16 1 -1 -1.836970e-16 261.6473 54.4752)"
   class="st3"
   width="3.55"
   height="3.68"
   id="rect124" />
	
		<rect
   x="105.49"
   y="154.83"
   transform="matrix(-1.836970e-16 1 -1 -1.836970e-16 263.9362 49.4029)"
   class="st3"
   width="3.55"
   height="3.68"
   id="rect125" />
	
		<rect
   x="101.8"
   y="166.3"
   transform="matrix(-1.836970e-16 1 -1 -1.836970e-16 271.7184 64.5591)"
   class="st3"
   width="3.55"
   height="3.68"
   id="rect126" />
	
		<rect
   x="105.48"
   y="167.71"
   transform="matrix(-1.836970e-16 1 -1 -1.836970e-16 276.8059 62.2856)"
   class="st3"
   width="3.55"
   height="3.68"
   id="rect127" />
	
		<rect
   x="98.13"
   y="164.78"
   transform="matrix(-1.836970e-16 1 -1 -1.836970e-16 266.5362 66.7124)"
   class="st3"
   width="3.55"
   height="3.68"
   id="rect128" />
	
		<rect
   x="94.46"
   y="161.31"
   transform="matrix(-1.836970e-16 1 -1 -1.836970e-16 259.3851 66.9096)"
   class="st3"
   width="3.55"
   height="3.68"
   id="rect129" />
	
		<rect
   x="98.13"
   y="157.75"
   transform="matrix(-1.836970e-16 1 -1 -1.836970e-16 259.5044 59.6806)"
   class="st3"
   width="3.55"
   height="3.68"
   id="rect130" />
</g>
<g
   id="g137">
	
		<rect
   x="230.07"
   y="156.26"
   transform="matrix(-1.836970e-16 1 -1 -1.836970e-16 389.9485 -73.7467)"
   class="st3"
   width="3.55"
   height="3.68"
   id="rect131" />
	
		<rect
   x="226.39"
   y="154.87"
   transform="matrix(-1.836970e-16 1 -1 -1.836970e-16 384.8763 -71.4578)"
   class="st3"
   width="3.55"
   height="3.68"
   id="rect132" />
	
		<rect
   x="230.08"
   y="166.34"
   transform="matrix(-1.836970e-16 1 -1 -1.836970e-16 400.0324 -63.6756)"
   class="st3"
   width="3.55"
   height="3.68"
   id="rect133" />
	
		<rect
   x="226.4"
   y="167.75"
   transform="matrix(-1.836970e-16 1 -1 -1.836970e-16 397.7589 -58.588)"
   class="st3"
   width="3.55"
   height="3.68"
   id="rect134" />
	
		<rect
   x="233.74"
   y="164.82"
   transform="matrix(-1.836970e-16 1 -1 -1.836970e-16 402.1858 -68.8577)"
   class="st3"
   width="3.55"
   height="3.68"
   id="rect135" />
	
		<rect
   x="237.42"
   y="161.35"
   transform="matrix(-1.836970e-16 1 -1 -1.836970e-16 402.383 -76.0088)"
   class="st3"
   width="3.55"
   height="3.68"
   id="rect136" />
	
		<rect
   x="233.74"
   y="157.79"
   transform="matrix(-1.836970e-16 1 -1 -1.836970e-16 395.1539 -75.8896)"
   class="st3"
   width="3.55"
   height="3.68"
   id="rect137" />
</g>
<rect
   x="101.82"
   y="320.6"
   transform="matrix(-1.836970e-16 1 -1 -1.836970e-16 426.032 218.8435)"
   class="st3"
   width="3.55"
   height="3.68"
   id="rect138" />
<rect
   x="105.5"
   y="319.21"
   transform="matrix(-1.836970e-16 1 -1 -1.836970e-16 428.3209 213.7712)"
   class="st3"
   width="3.55"
   height="3.68"
   id="rect139" />
<rect
   x="101.81"
   y="330.67"
   transform="matrix(-1.836970e-16 1 -1 -1.836970e-16 436.1031 228.9274)"
   class="st3"
   width="3.55"
   height="3.68"
   id="rect140" />
<rect
   x="105.49"
   y="332.08"
   transform="matrix(-1.836970e-16 1 -1 -1.836970e-16 441.1907 226.6538)"
   class="st3"
   width="3.55"
   height="3.68"
   id="rect141" />
<rect
   x="98.14"
   y="329.16"
   transform="matrix(-1.836970e-16 1 -1 -1.836970e-16 430.9209 231.0807)"
   class="st3"
   width="3.55"
   height="3.68"
   id="rect142" />
<rect
   x="94.47"
   y="325.68"
   transform="matrix(-1.836970e-16 1 -1 -1.836970e-16 423.7698 231.2779)"
   class="st3"
   width="3.55"
   height="3.68"
   id="rect143" />
<rect
   x="98.14"
   y="322.13"
   transform="matrix(-1.836970e-16 1 -1 -1.836970e-16 423.8891 224.0489)"
   class="st3"
   width="3.55"
   height="3.68"
   id="rect144" />
<g
   id="g151">
	
		<rect
   x="230.08"
   y="320.64"
   transform="matrix(-1.836970e-16 1 -1 -1.836970e-16 554.3333 90.6216)"
   class="st3"
   width="3.55"
   height="3.68"
   id="rect145" />
	
		<rect
   x="226.4"
   y="319.25"
   transform="matrix(-1.836970e-16 1 -1 -1.836970e-16 549.261 92.9105)"
   class="st3"
   width="3.55"
   height="3.68"
   id="rect146" />
	
		<rect
   x="230.08"
   y="330.71"
   transform="matrix(-1.836970e-16 1 -1 -1.836970e-16 564.4172 100.6927)"
   class="st3"
   width="3.55"
   height="3.68"
   id="rect147" />
	
		<rect
   x="226.4"
   y="332.12"
   transform="matrix(-1.836970e-16 1 -1 -1.836970e-16 562.1436 105.7803)"
   class="st3"
   width="3.55"
   height="3.68"
   id="rect148" />
	
		<rect
   x="233.75"
   y="329.2"
   transform="matrix(-1.836970e-16 1 -1 -1.836970e-16 566.5705 95.5105)"
   class="st3"
   width="3.55"
   height="3.68"
   id="rect149" />
	
		<rect
   x="237.43"
   y="325.72"
   transform="matrix(-1.836970e-16 1 -1 -1.836970e-16 566.7677 88.3594)"
   class="st3"
   width="3.55"
   height="3.68"
   id="rect150" />
	
		<rect
   x="233.75"
   y="322.17"
   transform="matrix(-1.836970e-16 1 -1 -1.836970e-16 559.5386 88.4787)"
   class="st3"
   width="3.55"
   height="3.68"
   id="rect151" />
</g>
<g
   id="g158">
	
		<rect
   x="228.41"
   y="311.18"
   transform="matrix(-1.836970e-16 1 -1 -1.836970e-16 541.5322 82.8014)"
   class="st3"
   width="1.91"
   height="1.98"
   id="rect152" />
	
		<rect
   x="226.43"
   y="310.43"
   transform="matrix(-1.836970e-16 1 -1 -1.836970e-16 538.8008 84.0339)"
   class="st3"
   width="1.91"
   height="1.98"
   id="rect153" />
	
		<rect
   x="228.41"
   y="316.6"
   transform="matrix(-1.836970e-16 1 -1 -1.836970e-16 546.9624 88.2246)"
   class="st3"
   width="1.91"
   height="1.98"
   id="rect154" />
	
		<rect
   x="226.43"
   y="317.36"
   transform="matrix(-1.836970e-16 1 -1 -1.836970e-16 545.7381 90.9643)"
   class="st3"
   width="1.91"
   height="1.98"
   id="rect155" />
	
		<rect
   x="230.39"
   y="315.79"
   transform="matrix(-1.836970e-16 1 -1 -1.836970e-16 548.1219 85.434)"
   class="st3"
   width="1.91"
   height="1.98"
   id="rect156" />
	
		<rect
   x="232.37"
   y="313.91"
   transform="matrix(-1.836970e-16 1 -1 -1.836970e-16 548.2281 81.5832)"
   class="st3"
   width="1.91"
   height="1.98"
   id="rect157" />
	
		<rect
   x="230.39"
   y="312"
   transform="matrix(-1.836970e-16 1 -1 -1.836970e-16 544.3353 81.6474)"
   class="st3"
   width="1.91"
   height="1.98"
   id="rect158" />
</g>
<g
   id="g165">
	
		<rect
   x="105.25"
   y="146.76"
   transform="matrix(-1.836970e-16 1 -1 -1.836970e-16 253.9542 41.547)"
   class="st3"
   width="1.91"
   height="1.98"
   id="rect159" />
	
		<rect
   x="107.23"
   y="146.01"
   transform="matrix(-1.836970e-16 1 -1 -1.836970e-16 255.1868 38.8156)"
   class="st3"
   width="1.91"
   height="1.98"
   id="rect160" />
	
		<rect
   x="105.24"
   y="152.19"
   transform="matrix(-1.836970e-16 1 -1 -1.836970e-16 259.3774 46.9772)"
   class="st3"
   width="1.91"
   height="1.98"
   id="rect161" />
	
		<rect
   x="107.22"
   y="152.94"
   transform="matrix(-1.836970e-16 1 -1 -1.836970e-16 262.1171 45.7529)"
   class="st3"
   width="1.91"
   height="1.98"
   id="rect162" />
	
		<rect
   x="103.27"
   y="151.37"
   transform="matrix(-1.836970e-16 1 -1 -1.836970e-16 256.5869 48.1367)"
   class="st3"
   width="1.91"
   height="1.98"
   id="rect163" />
	
		<rect
   x="101.29"
   y="149.5"
   transform="matrix(-1.836970e-16 1 -1 -1.836970e-16 252.736 48.2429)"
   class="st3"
   width="1.91"
   height="1.98"
   id="rect164" />
	
		<rect
   x="103.27"
   y="147.58"
   transform="matrix(-1.836970e-16 1 -1 -1.836970e-16 252.8003 44.3501)"
   class="st3"
   width="1.91"
   height="1.98"
   id="rect165" />
</g>
<rect
   x="194.19"
   y="319.58"
   transform="matrix(-1.836970e-16 1 -1 -1.836970e-16 525.0486 130.9616)"
   class="st2"
   width="5.7"
   height="16.85"
   id="rect166" />
<rect
   x="188.5"
   y="325.28"
   transform="matrix(-1.836970e-16 1 -1 -1.836970e-16 525.0599 142.3526)"
   class="st2"
   width="5.7"
   height="16.85"
   id="rect167" />
<rect
   x="195.7"
   y="309.8"
   transform="matrix(-1.836970e-16 1 -1 -1.836970e-16 521.0286 123.9365)"
   class="st2"
   width="5.7"
   height="25.36"
   id="rect168" />
<rect
   x="181.99"
   y="324.24"
   transform="matrix(-1.836970e-16 1 -1 -1.836970e-16 513.0223 143.3451)"
   class="st2"
   width="5.7"
   height="7.89"
   id="rect169" />
<rect
   x="177.65"
   y="330.85"
   transform="matrix(-1.836970e-16 1 -1 -1.836970e-16 514.0324 153.0229)"
   class="st2"
   width="5.7"
   height="5.36"
   id="rect170" />
<rect
   x="184.46"
   y="330.71"
   transform="matrix(-1.836970e-16 1 -1 -1.836970e-16 526.4373 151.8216)"
   class="st2"
   width="5.7"
   height="16.85"
   id="rect171" />
<rect
   x="178.77"
   y="336.41"
   transform="matrix(-1.836970e-16 1 -1 -1.836970e-16 526.4485 163.2126)"
   class="st2"
   width="5.7"
   height="16.85"
   id="rect172" />
<rect
   x="171"
   y="339.58"
   transform="matrix(-1.836970e-16 1 -1 -1.836970e-16 524.0275 176.3215)"
   class="st2"
   width="5.7"
   height="21.18"
   id="rect173" />
<rect
   x="172.29"
   y="335.37"
   transform="matrix(-1.836970e-16 1 -1 -1.836970e-16 514.2708 163.988)"
   class="st2"
   width="5.7"
   height="7.52"
   id="rect174" />
<rect
   x="167.67"
   y="341.73"
   transform="matrix(-1.836970e-16 1 -1 -1.836970e-16 515.173 174.131)"
   class="st2"
   width="5.7"
   height="5.85"
   id="rect175" />
<rect
   x="135.74"
   y="319.53"
   transform="matrix(-1.836970e-16 1 -1 -1.836970e-16 466.5476 189.3632)"
   class="st2"
   width="5.7"
   height="16.85"
   id="rect176" />
<rect
   x="141.43"
   y="325.23"
   transform="matrix(-1.836970e-16 1 -1 -1.836970e-16 477.9386 189.3745)"
   class="st2"
   width="5.7"
   height="16.85"
   id="rect177" />
<rect
   x="134.99"
   y="309"
   transform="matrix(-1.836970e-16 1 -1 -1.836970e-16 460.2778 184.5879)"
   class="st2"
   width="5.7"
   height="26.87"
   id="rect178" />
<rect
   x="148.19"
   y="323.94"
   transform="matrix(-1.836970e-16 1 -1 -1.836970e-16 479.1768 177.0912)"
   class="st2"
   width="5.7"
   height="8.38"
   id="rect179" />
<rect
   x="152.53"
   y="330.55"
   transform="matrix(-1.836970e-16 1 -1 -1.836970e-16 488.857 178.0989)"
   class="st2"
   width="5.7"
   height="5.85"
   id="rect180" />
<rect
   x="145.48"
   y="330.66"
   transform="matrix(-1.836970e-16 1 -1 -1.836970e-16 487.4076 190.7518)"
   class="st2"
   width="5.7"
   height="16.85"
   id="rect181" />
<rect
   x="151.17"
   y="336.36"
   transform="matrix(-1.836970e-16 1 -1 -1.836970e-16 498.7986 190.7632)"
   class="st2"
   width="5.7"
   height="16.85"
   id="rect182" />
<rect
   x="158.93"
   y="339.54"
   transform="matrix(-1.836970e-16 1 -1 -1.836970e-16 511.9075 188.3421)"
   class="st2"
   width="5.7"
   height="21.18"
   id="rect183" />
<rect
   x="158.07"
   y="334.89"
   transform="matrix(-1.836970e-16 1 -1 -1.836970e-16 500.0051 178.1544)"
   class="st2"
   width="5.7"
   height="8.38"
   id="rect184" />
<rect
   x="162.26"
   y="341.68"
   transform="matrix(-1.836970e-16 1 -1 -1.836970e-16 509.717 179.4876)"
   class="st2"
   width="5.7"
   height="5.85"
   id="rect185" />
<rect
   x="193.97"
   y="362.63"
   transform="matrix(6.123234e-17 -1 1 6.123234e-17 -174.2379 567.8786)"
   class="st2"
   width="5.7"
   height="16.85"
   id="rect186" />
<rect
   x="188.28"
   y="356.93"
   transform="matrix(6.123234e-17 -1 1 6.123234e-17 -174.2265 556.4876)"
   class="st2"
   width="5.7"
   height="16.85"
   id="rect187" />
<rect
   x="194.72"
   y="363.14"
   transform="matrix(6.123234e-17 -1 1 6.123234e-17 -179.0132 574.1484)"
   class="st2"
   width="5.7"
   height="26.87"
   id="rect188" />
<rect
   x="181.52"
   y="366.69"
   transform="matrix(6.123234e-17 -1 1 6.123234e-17 -186.5099 555.2494)"
   class="st2"
   width="5.7"
   height="8.38"
   id="rect189" />
<rect
   x="177.18"
   y="362.61"
   transform="matrix(6.123234e-17 -1 1 6.123234e-17 -185.5021 545.5692)"
   class="st2"
   width="5.7"
   height="5.85"
   id="rect190" />
<rect
   x="184.23"
   y="351.51"
   transform="matrix(6.123234e-17 -1 1 6.123234e-17 -172.8492 547.0186)"
   class="st2"
   width="5.7"
   height="16.85"
   id="rect191" />
<rect
   x="178.54"
   y="345.81"
   transform="matrix(6.123234e-17 -1 1 6.123234e-17 -172.8379 535.6276)"
   class="st2"
   width="5.7"
   height="16.85"
   id="rect192" />
<rect
   x="170.78"
   y="338.3"
   transform="matrix(6.123234e-17 -1 1 6.123234e-17 -175.2589 522.5187)"
   class="st2"
   width="5.7"
   height="21.18"
   id="rect193" />
<rect
   x="171.64"
   y="355.74"
   transform="matrix(6.123234e-17 -1 1 6.123234e-17 -185.4467 534.4211)"
   class="st2"
   width="5.7"
   height="8.38"
   id="rect194" />
<rect
   x="167.45"
   y="351.49"
   transform="matrix(6.123234e-17 -1 1 6.123234e-17 -184.1135 524.7092)"
   class="st2"
   width="5.7"
   height="5.85"
   id="rect195" />
<rect
   x="135.52"
   y="362.68"
   transform="matrix(6.123234e-17 -1 1 6.123234e-17 -232.7389 509.477)"
   class="st2"
   width="5.7"
   height="16.85"
   id="rect196" />
<rect
   x="141.21"
   y="356.98"
   transform="matrix(6.123234e-17 -1 1 6.123234e-17 -221.3479 509.4657)"
   class="st2"
   width="5.7"
   height="16.85"
   id="rect197" />
<rect
   x="134.77"
   y="363.19"
   transform="matrix(6.123234e-17 -1 1 6.123234e-17 -239.0086 514.2524)"
   class="st2"
   width="5.7"
   height="26.87"
   id="rect198" />
<rect
   x="147.97"
   y="366.74"
   transform="matrix(6.123234e-17 -1 1 6.123234e-17 -220.1096 521.749)"
   class="st2"
   width="5.7"
   height="8.38"
   id="rect199" />
<rect
   x="152.31"
   y="362.66"
   transform="matrix(6.123234e-17 -1 1 6.123234e-17 -210.4295 520.7413)"
   class="st2"
   width="5.7"
   height="5.85"
   id="rect200" />
<rect
   x="145.25"
   y="351.56"
   transform="matrix(6.123234e-17 -1 1 6.123234e-17 -211.8789 508.0884)"
   class="st2"
   width="5.7"
   height="16.85"
   id="rect201" />
<rect
   x="150.94"
   y="345.86"
   transform="matrix(6.123234e-17 -1 1 6.123234e-17 -200.4879 508.0771)"
   class="st2"
   width="5.7"
   height="16.85"
   id="rect202" />
<rect
   x="158.71"
   y="338.35"
   transform="matrix(6.123234e-17 -1 1 6.123234e-17 -187.379 510.4981)"
   class="st2"
   width="5.7"
   height="21.18"
   id="rect203" />
<rect
   x="157.85"
   y="355.79"
   transform="matrix(6.123234e-17 -1 1 6.123234e-17 -199.2814 520.6859)"
   class="st2"
   width="5.7"
   height="8.38"
   id="rect204" />
<rect
   x="162.04"
   y="351.53"
   transform="matrix(6.123234e-17 -1 1 6.123234e-17 -189.5695 519.3527)"
   class="st2"
   width="5.7"
   height="5.85"
   id="rect205" />
<rect
   x="165.77"
   y="322.58"
   transform="matrix(-1.836970e-16 1 -1 -1.836970e-16 492.1198 156.8089)"
   class="st2"
   width="3.77"
   height="3.77"
   id="rect206" />












































</svg>
