<?xml version="1.0" encoding="UTF-8" standalone="no"?>
<!-- Generator: Adobe Illustrator 26.0.3, SVG Export Plug-In . SVG Version: 6.00 Build 0)  -->

<svg
   version="1.1"
   id="Capa_1"
   x="0px"
   y="0px"
   viewBox="0 0 841.89 595.28"
   style="enable-background:new 0 0 841.89 595.28;"
   xml:space="preserve"
   sodipodi:docname="torreta.svg"
   inkscape:version="1.3.2 (091e20e, 2023-11-25, custom)"
   xmlns:inkscape="http://www.inkscape.org/namespaces/inkscape"
   xmlns:sodipodi="http://sodipodi.sourceforge.net/DTD/sodipodi-0.dtd"
   xmlns="http://www.w3.org/2000/svg"
   xmlns:svg="http://www.w3.org/2000/svg"><defs
   id="defs250" /><sodipodi:namedview
   id="namedview250"
   pagecolor="#505050"
   bordercolor="#ffffff"
   borderopacity="1"
   inkscape:showpageshadow="0"
   inkscape:pageopacity="0"
   inkscape:pagecheckerboard="1"
   inkscape:deskcolor="#505050"
   inkscape:zoom="1.8696849"
   inkscape:cx="195.48749"
   inkscape:cy="258.59972"
   inkscape:window-width="1920"
   inkscape:window-height="1001"
   inkscape:window-x="-9"
   inkscape:window-y="-9"
   inkscape:window-maximized="1"
   inkscape:current-layer="Capa_1" />
<style
   type="text/css"
   id="style1">
	.st0{fill:#EFB5A1;}
	.st1{fill:#2C1E37;}
	.st2{fill:#A9696A;}
	.st3{fill:#794664;}
</style>






































































































































































<rect
   x="374.25"
   y="187"
   class="st0"
   width="42.74"
   height="58.15"
   id="rect207" />
<rect
   x="367.78"
   y="206.84"
   class="st0"
   width="7.79"
   height="17.93"
   id="rect208" />
<rect
   x="414.83"
   y="206"
   class="st0"
   width="7.25"
   height="19.91"
   id="rect209" />
<rect
   x="380.19"
   y="243.7"
   class="st0"
   width="29.16"
   height="6.47"
   id="rect210" />
<rect
   x="386.79"
   y="253.64"
   class="st0"
   width="15.66"
   height="13.97"
   id="rect211" />
<rect
   x="390.33"
   y="266.95"
   class="st0"
   width="8.43"
   height="15"
   id="rect212" />
<rect
   x="391.28"
   y="279.73"
   class="st0"
   width="5.99"
   height="40.24"
   id="rect213" />
<rect
   x="363.23"
   y="213.95"
   transform="matrix(-1.836970e-16 1 -1 -1.836970e-16 588.1988 -155.9872)"
   class="st2"
   width="17.73"
   height="4.32"
   id="rect214" />
<rect
   x="410.28"
   y="215.36"
   transform="matrix(-1.836970e-16 1 -1 -1.836970e-16 636.6674 -201.6252)"
   class="st2"
   width="17.73"
   height="4.32"
   id="rect215" />
<rect
   x="405.97"
   y="230.52"
   transform="matrix(-1.836970e-16 1 -1 -1.836970e-16 647.5051 -182.1555)"
   class="st2"
   width="17.73"
   height="4.32"
   id="rect216" />
<rect
   x="367.54"
   y="230.52"
   transform="matrix(-1.836970e-16 1 -1 -1.836970e-16 609.0837 -143.7342)"
   class="st2"
   width="17.73"
   height="4.32"
   id="rect217" />
<rect
   x="407.79"
   y="200.07"
   transform="matrix(-1.836970e-16 1 -1 -1.836970e-16 617.0587 -212.6019)"
   class="st2"
   width="14.08"
   height="4.32"
   id="rect218" />
<rect
   x="382.76"
   y="185.92"
   class="st2"
   width="26.02"
   height="4.32"
   id="rect219" />
<rect
   x="377.57"
   y="237.22"
   class="st2"
   width="35.1"
   height="4.32"
   id="rect220" />
<rect
   x="369.37"
   y="200.07"
   transform="matrix(-1.836970e-16 1 -1 -1.836970e-16 578.6374 -174.1805)"
   class="st2"
   width="14.08"
   height="4.32"
   id="rect221" />
<rect
   x="374.25"
   y="209.27"
   transform="matrix(-1.836970e-16 1 -1 -1.836970e-16 587.8367 -164.9813)"
   class="st2"
   width="4.32"
   height="4.32"
   id="rect222" />
<rect
   x="408.36"
   y="223.75"
   transform="matrix(-1.836970e-16 1 -1 -1.836970e-16 636.4188 -184.6098)"
   class="st2"
   width="4.32"
   height="4.32"
   id="rect223" />
<rect
   x="392.61"
   y="281.46"
   transform="matrix(-1.836970e-16 1 -1 -1.836970e-16 678.3909 -111.1505)"
   class="st2"
   width="4.32"
   height="4.32"
   id="rect224" />
<rect
   x="391.91"
   y="267.61"
   transform="matrix(-1.836970e-16 1 -1 -1.836970e-16 663.8358 -124.2999)"
   class="st2"
   width="4.32"
   height="4.32"
   id="rect225" />
<rect
   x="392.9"
   y="248.94"
   transform="matrix(-1.836970e-16 1 -1 -1.836970e-16 651.4559 -138.6516)"
   class="st2"
   width="4.32"
   height="14.92"
   id="rect226" />
<rect
   x="396.23"
   y="267.61"
   transform="matrix(-1.836970e-16 1 -1 -1.836970e-16 668.1518 -128.6159)"
   class="st2"
   width="4.32"
   height="4.32"
   id="rect227" />
<rect
   x="378.44"
   y="209.27"
   transform="matrix(-1.836970e-16 1 -1 -1.836970e-16 592.0275 -169.1721)"
   class="st2"
   width="4.32"
   height="4.32"
   id="rect228" />
<rect
   x="352.48"
   y="213.95"
   transform="matrix(-1.836970e-16 1 -1 -1.836970e-16 583.8828 -151.6712)"
   class="st3"
   width="30.59"
   height="4.32"
   id="rect229" />
<rect
   x="363.23"
   y="198.25"
   transform="matrix(-1.836970e-16 1 -1 -1.836970e-16 572.4982 -171.6877)"
   class="st3"
   width="17.73"
   height="4.32"
   id="rect230" />
<rect
   x="363.23"
   y="230.52"
   transform="matrix(-1.836970e-16 1 -1 -1.836970e-16 604.7678 -139.4182)"
   class="st3"
   width="17.73"
   height="4.32"
   id="rect231" />
<rect
   x="376.73"
   y="245.86"
   transform="matrix(-1.836970e-16 1 -1 -1.836970e-16 626.8997 -130.8733)"
   class="st3"
   width="4.32"
   height="4.32"
   id="rect232" />
<rect
   x="409.35"
   y="245.86"
   transform="matrix(-1.836970e-16 1 -1 -1.836970e-16 659.5231 -163.4967)"
   class="st3"
   width="4.32"
   height="4.32"
   id="rect233" />
<rect
   x="378.87"
   y="258.89"
   transform="matrix(-1.836970e-16 1 -1 -1.836970e-16 646.4844 -124.3872)"
   class="st3"
   width="13.12"
   height="4.32"
   id="rect234" />
<rect
   x="398.05"
   y="258.89"
   transform="matrix(-1.836970e-16 1 -1 -1.836970e-16 665.6609 -143.5638)"
   class="st3"
   width="13.12"
   height="4.32"
   id="rect235" />
<rect
   x="382.86"
   y="272.34"
   transform="matrix(-1.836970e-16 1 -1 -1.836970e-16 664.2537 -115.2499)"
   class="st3"
   width="13.78"
   height="4.32"
   id="rect236" />
<rect
   x="393.43"
   y="272.38"
   transform="matrix(-1.836970e-16 1 -1 -1.836970e-16 674.8918 -125.8197)"
   class="st3"
   width="13.85"
   height="4.32"
   id="rect237" />
<rect
   x="370.54"
   y="299.62"
   transform="matrix(-1.836970e-16 1 -1 -1.836970e-16 692.7111 -89.1503)"
   class="st3"
   width="40.77"
   height="4.32"
   id="rect238" />
<rect
   x="378.28"
   y="299.79"
   transform="matrix(-1.836970e-16 1 -1 -1.836970e-16 700.7128 -96.813)"
   class="st3"
   width="40.98"
   height="4.32"
   id="rect239" />
<rect
   x="371.9"
   y="188.52"
   transform="matrix(-1.836970e-16 1 -1 -1.836970e-16 567.0907 -185.7273)"
   class="st3"
   width="9.01"
   height="4.32"
   id="rect240" />
<rect
   x="410.32"
   y="188.52"
   transform="matrix(-1.836970e-16 1 -1 -1.836970e-16 605.512 -224.1486)"
   class="st3"
   width="9.01"
   height="4.32"
   id="rect241" />
<rect
   x="376.83"
   y="184.3"
   transform="matrix(-1.836970e-16 1 -1 -1.836970e-16 567.059 -194.1405)"
   class="st3"
   width="7.55"
   height="4.32"
   id="rect242" />
<rect
   x="393.12"
   y="171.77"
   transform="matrix(-1.836970e-16 1 -1 -1.836970e-16 580.1255 -210.4388)"
   class="st3"
   width="4.32"
   height="26.15"
   id="rect243" />
<rect
   x="393.24"
   y="222.11"
   transform="matrix(-1.836970e-16 1 -1 -1.836970e-16 639.0975 -151.7031)"
   class="st3"
   width="4.32"
   height="43.18"
   id="rect244" />
<rect
   x="392.9"
   y="238.03"
   transform="matrix(-1.836970e-16 1 -1 -1.836970e-16 647.383 -142.7246)"
   class="st3"
   width="4.32"
   height="28.6"
   id="rect245" />
<rect
   x="392.69"
   y="314.21"
   transform="matrix(-1.836970e-16 1 -1 -1.836970e-16 715.1326 -74.561)"
   class="st3"
   width="4.32"
   height="12.15"
   id="rect246" />
<rect
   x="406.74"
   y="184.3"
   transform="matrix(-1.836970e-16 1 -1 -1.836970e-16 596.9736 -224.055)"
   class="st3"
   width="7.55"
   height="4.32"
   id="rect247" />
<rect
   x="410.28"
   y="230.52"
   transform="matrix(-1.836970e-16 1 -1 -1.836970e-16 651.8211 -186.4715)"
   class="st3"
   width="17.73"
   height="4.32"
   id="rect248" />
<rect
   x="410.28"
   y="198.25"
   transform="matrix(-1.836970e-16 1 -1 -1.836970e-16 619.5516 -218.741)"
   class="st3"
   width="17.73"
   height="4.32"
   id="rect249" />
<rect
   x="408.17"
   y="213.95"
   transform="matrix(-1.836970e-16 1 -1 -1.836970e-16 639.5681 -207.3565)"
   class="st3"
   width="30.59"
   height="4.32"
   id="rect250" />
</svg>
